<svg width="40" height="40" viewBox="0 0 40 40" fill="none" xmlns="http://www.w3.org/2000/svg">
    <path d="M8.49996 26.75C7.88885 25.6944 7.43051 24.6111 7.12496 23.5C6.8194 22.3888 6.66663 21.25 6.66663 20.0833C6.66663 16.3611 7.95829 13.1944 10.5416 10.5833C13.125 7.97218 16.2777 6.66663 20 6.66663H20.2916L17.625 3.99996L19.9583 1.66663L26.625 8.33329L19.9583 15L17.625 12.6666L20.2916 9.99996H20C17.2222 9.99996 14.8611 10.9794 12.9166 12.9383C10.9722 14.8972 9.99996 17.2788 9.99996 20.0833C9.99996 20.8055 10.0833 21.5138 10.25 22.2083C10.4166 22.9027 10.6666 23.5833 11 24.25L8.49996 26.75ZM20.0416 38.3333L13.375 31.6666L20.0416 25L22.375 27.3333L19.7083 30H20C22.7777 30 25.1388 29.0205 27.0833 27.0616C29.0277 25.1027 30 22.7211 30 19.9166C30 19.1944 29.9166 18.4861 29.75 17.7916C29.5833 17.0972 29.3333 16.4166 29 15.75L31.5 13.25C32.1111 14.3055 32.5694 15.3888 32.875 16.5C33.1805 17.6111 33.3333 18.75 33.3333 19.9166C33.3333 23.6388 32.0416 26.8055 29.4583 29.4166C26.875 32.0277 23.7222 33.3333 20 33.3333H19.7083L22.375 36L20.0416 38.3333Z"/>
</svg>
