<svg width="40" height="40" viewBox="0 0 40 40" fill="none" xmlns="http://www.w3.org/2000/svg">
    <path d="M8.94994 2.81252C9.15787 2.99371 9.30003 3.23858 9.35429 3.50898C9.40855 3.77938 9.37187 4.06014 9.24994 4.30752C9.22774 4.38043 9.21678 4.45631 9.21744 4.53252C9.21744 4.69002 9.25744 4.99002 9.63494 5.36502C9.81744 5.54752 9.95744 5.67752 10.1099 5.82002C10.2349 5.93502 10.3674 6.05502 10.5349 6.22002C10.8599 6.53002 11.2024 6.89502 11.5099 7.35252C12.1474 8.31002 12.4999 9.50752 12.4999 11.25C12.4999 12.205 12.3424 13.1 12.0549 13.8925C11.2399 16.1425 9.40744 17.5 7.49994 17.5C5.59244 17.5 3.75994 16.14 2.94494 13.8925C2.6443 13.0442 2.49371 12.15 2.49994 11.25C2.49994 10.435 2.71744 9.46252 3.01744 8.56502C3.31744 7.66752 3.73744 6.73502 4.22244 5.98502C4.79994 5.01002 5.61244 4.19252 6.24244 3.64252C6.5891 3.34028 6.94949 3.05415 7.32244 2.78502L7.39744 2.73502L7.41994 2.71752L7.42744 2.71252L7.43244 2.71002C7.66168 2.55721 7.93498 2.48442 8.20986 2.50296C8.48474 2.52149 8.74579 2.63032 8.95244 2.81252M7.49994 20C9.08786 20.0041 10.6264 19.4481 11.8449 18.43C11.8949 18.5867 11.9424 18.745 11.9874 18.905C12.4999 20.785 12.4999 23.11 12.4999 24.9075V25C12.4999 30.145 11.5374 33.2 10.4474 35.0175C10.0344 35.7323 9.49383 36.3653 8.85244 36.885C8.59731 37.0825 8.32053 37.2502 8.02744 37.385C8.02744 37.385 7.70994 37.5 7.49994 37.5C7.31972 37.4857 7.14227 37.447 6.97244 37.385C6.67936 37.2502 6.40257 37.0825 6.14744 36.885C5.50605 36.3653 4.96544 35.7323 4.55244 35.0175C3.46244 33.2025 2.49994 30.145 2.49994 25V24.91C2.49994 23.11 2.49994 20.7875 3.01244 18.9025C3.05577 18.7459 3.10327 18.5875 3.15494 18.4275C4.37247 19.4483 5.91109 20.007 7.49994 20.005M17.4949 27.4375C16.6284 27.3408 15.776 27.1436 14.9549 26.85C14.9849 26.22 14.9999 25.57 14.9999 24.9V24.16C15.7749 24.5275 16.6149 24.785 17.4949 24.91V20C17.4949 18.6739 18.0217 17.4022 18.9594 16.4645C19.8971 15.5268 21.1689 15 22.4949 15H27.4074C27.2086 13.6178 26.6818 12.3032 25.871 11.1661C25.0603 10.029 23.9892 9.10255 22.7472 8.46406C21.5052 7.82557 20.1284 7.49362 18.7319 7.49596C17.3354 7.49831 15.9598 7.83487 14.7199 8.47752C14.5235 7.66021 14.1996 6.87896 13.7599 6.16252C15.3803 5.36173 17.1697 4.96313 18.9767 5.00045C20.7837 5.03777 22.5551 5.50992 24.141 6.37692C25.7269 7.24393 27.0805 8.48027 28.0873 9.98128C29.0941 11.4823 29.7244 13.2038 29.9249 15H32.4924C33.8185 15 35.0903 15.5268 36.028 16.4645C36.9657 17.4022 37.4924 18.6739 37.4924 20V30C37.4924 31.3261 36.9657 32.5979 36.028 33.5356C35.0903 34.4732 33.8185 35 32.4924 35H22.4924C21.1664 35 19.8946 34.4732 18.9569 33.5356C18.0192 32.5979 17.4924 31.3261 17.4924 30L17.4949 27.4375ZM29.9274 17.5C29.6443 20.0369 28.5068 22.402 26.7018 24.2069C24.8969 26.0119 22.5318 27.1493 19.9949 27.4325V30C19.9949 30.6631 20.2583 31.2989 20.7272 31.7678C21.196 32.2366 21.8319 32.5 22.4949 32.5H32.4949C33.158 32.5 33.7939 32.2366 34.2627 31.7678C34.7315 31.2989 34.9949 30.6631 34.9949 30V20C34.9949 19.337 34.7315 18.7011 34.2627 18.2323C33.7939 17.7634 33.158 17.5 32.4949 17.5H29.9274ZM27.4074 17.5H22.4949C21.8319 17.5 21.196 17.7634 20.7272 18.2323C20.2583 18.7011 19.9949 19.337 19.9949 20V24.9125C21.8652 24.643 23.598 23.7753 24.9341 22.4392C26.2702 21.103 27.1379 19.3703 27.4074 17.5Z"/>
</svg>
