<svg width="746" height="856" viewBox="0 0 746 856" fill="none" xmlns="http://www.w3.org/2000/svg">
  <path d="M383.692 822.493C228.779 896.138 149.123 831.609 75.1771 751.605C1.23168 671.601 -23.396 594.803 28.7542 438.473C80.9044 282.143 160.914 9.62962 325.498 1.22024C490.082 -7.18915 806.636 227.009 818.759 398.108" stroke="url(#paint0_linear_23_4566)" stroke-width="2" />
  <path d="M384.891 804.557C237.019 874.854 160.983 813.259 90.3992 736.891C19.8149 660.524 -3.6933 587.217 46.0864 437.992C95.8661 288.768 172.238 28.642 329.342 20.6149C486.445 12.5877 788.61 236.141 800.182 399.462" stroke="url(#paint1_linear_23_4566)" stroke-width="2" />
  <path d="M386.09 786.621C245.26 853.571 172.844 794.908 105.621 722.177C38.3981 649.446 16.0094 579.63 63.4186 437.512C110.828 295.394 183.563 47.6544 333.186 40.0095C482.808 32.3646 770.584 245.272 781.605 400.816" stroke="url(#paint2_linear_23_4566)" stroke-width="2" />
  <path d="M387.288 768.685C253.5 832.287 184.705 776.558 120.843 707.464C56.9813 638.369 35.712 572.044 80.7508 437.031C125.79 302.019 194.888 66.6667 337.029 59.4041C479.171 52.1414 752.557 254.404 763.028 402.171" stroke="url(#paint3_linear_23_4566)" stroke-width="2" />
  <path d="M388.487 750.749C261.74 811.004 196.566 758.208 136.065 692.75C75.5646 627.292 55.4147 564.457 98.083 436.551C140.751 308.644 206.213 85.6791 340.873 78.7987C475.533 71.9183 734.531 263.535 744.451 403.525" stroke="url(#paint4_linear_23_4566)" stroke-width="2" />
  <path d="M389.685 732.813C269.98 789.72 208.427 739.857 151.287 678.036C94.1478 616.215 75.1173 556.871 115.415 436.07C155.713 315.27 217.538 104.691 344.717 98.1933C471.896 91.6951 716.505 272.667 725.874 404.879" stroke="url(#paint5_linear_23_4566)" stroke-width="2" />
  <path d="M390.884 714.877C278.22 768.437 220.288 721.507 166.509 663.322C112.731 605.137 94.82 549.284 132.747 435.59C170.675 321.895 228.863 123.704 348.561 117.588C468.259 111.472 698.479 281.798 707.297 406.233" stroke="url(#paint6_linear_23_4566)" stroke-width="2" />
  <path d="M392.083 696.941C286.46 747.154 232.149 703.157 181.732 648.608C131.314 594.06 114.523 541.698 150.08 435.109C185.637 328.521 240.188 142.716 352.405 136.982C464.621 131.249 680.453 290.93 688.719 407.588" stroke="url(#paint7_linear_23_4566)" stroke-width="2" />
  <path d="M393.281 679.005C294.7 725.87 244.01 684.806 196.954 633.895C149.897 582.983 134.225 534.112 167.412 434.629C200.598 335.146 251.513 161.729 356.249 156.377C460.984 151.026 662.427 300.061 670.142 408.942" stroke="url(#paint8_linear_23_4566)" stroke-width="2" />
  <path d="M394.48 661.069C302.941 704.587 255.871 666.456 212.176 619.181C168.481 571.906 153.928 526.525 184.744 434.148C215.56 341.771 262.838 180.741 360.093 175.772C457.347 170.803 644.401 309.193 651.565 410.296" stroke="url(#paint9_linear_23_4566)" stroke-width="2" />
  <path d="M395.679 643.133C311.181 683.303 267.732 648.106 227.398 604.467C187.064 560.828 173.631 518.939 202.076 433.668C230.522 348.397 274.163 199.753 363.936 195.166C453.71 190.579 626.375 318.324 632.988 411.65" stroke="url(#paint10_linear_23_4566)" stroke-width="2" />
  <path d="M396.877 625.197C319.421 662.02 279.593 629.755 242.62 589.753C205.647 549.751 193.333 511.352 219.408 433.187C245.483 355.022 285.488 218.765 367.78 214.561C450.072 210.356 608.349 327.455 614.411 413.005" stroke="url(#paint11_linear_23_4566)" stroke-width="2" />
  <path d="M398.076 607.261C327.661 640.736 291.453 611.405 257.842 575.039C224.23 538.674 213.036 503.766 236.741 432.707C260.445 361.647 296.813 237.778 371.624 233.955C446.435 230.133 590.323 336.587 595.834 414.359" stroke="url(#paint12_linear_23_4566)" stroke-width="2" />
  <path d="M399.275 589.325C335.901 619.453 303.314 593.054 273.064 560.326C242.814 527.597 232.739 496.179 254.073 432.226C275.407 368.273 308.138 256.79 375.468 253.35C442.798 249.91 572.297 345.718 577.257 415.713" stroke="url(#paint13_linear_23_4566)" stroke-width="2" />
  <path d="M400.473 571.389C344.141 598.169 315.175 574.704 288.286 545.612C261.397 516.519 252.441 488.593 271.405 431.746C290.369 374.898 319.463 275.803 379.312 272.745C439.161 269.687 554.271 354.85 558.68 417.067" stroke="url(#paint14_linear_23_4566)" stroke-width="2" />
  <path d="M401.672 553.453C352.381 576.886 327.036 556.354 303.508 530.898C279.98 505.442 272.144 481.006 288.737 431.265C305.33 381.524 330.788 294.815 383.156 292.139C435.523 289.463 536.245 363.981 540.102 418.422" stroke="url(#paint15_linear_23_4566)" stroke-width="2" />
  <path d="M402.871 535.517C360.622 555.602 338.897 538.003 318.73 516.184C298.563 494.365 291.847 473.42 306.069 430.785C320.292 388.149 342.113 313.827 386.999 311.534C431.886 309.24 518.219 373.113 521.525 419.776" stroke="url(#paint16_linear_23_4566)" stroke-width="2" />
  <path d="M404.069 517.581C368.862 534.319 350.758 519.653 333.952 501.47C317.146 483.288 311.549 465.834 323.402 430.304C335.254 394.774 353.438 332.84 390.843 330.928C428.249 329.017 500.193 382.244 502.948 421.13" stroke="url(#paint17_linear_23_4566)" stroke-width="2" />
  <path d="M405.268 499.645C377.102 513.035 362.619 501.303 349.174 486.757C335.73 472.21 331.252 458.247 340.734 429.823C350.216 401.4 364.763 351.852 394.687 350.323C424.612 348.794 482.167 391.376 484.371 422.484" stroke="url(#paint18_linear_23_4566)" stroke-width="2" />
  <path d="M406.467 481.709C385.342 491.752 374.48 482.952 364.396 472.043C354.313 461.133 350.955 450.661 358.066 429.343C365.177 408.025 376.088 370.864 398.531 369.718C420.974 368.571 464.141 400.507 465.794 423.839" stroke="url(#paint19_linear_23_4566)" stroke-width="2" />
  <path d="M407.665 463.773C393.582 470.468 386.341 464.602 379.618 457.329C372.896 450.056 370.657 443.074 375.398 428.862C380.139 414.651 387.413 389.877 402.375 389.112C417.337 388.348 446.115 409.639 447.217 425.193" stroke="url(#paint20_linear_23_4566)" stroke-width="2" />
  <path d="M408.864 445.837C401.822 449.185 398.202 446.252 394.84 442.615C391.479 438.979 390.36 435.488 392.73 428.382C395.101 421.276 398.738 408.889 406.219 408.507C413.7 408.125 428.089 418.77 428.64 426.547" stroke="url(#paint21_linear_23_4566)" stroke-width="2" />
  <defs>
    <linearGradient id="paint0_linear_23_4566" x1="40907.3" y1="1" x2="40907.3" y2="85381.3" gradientUnits="userSpaceOnUse">
      <stop offset="0.45" stop-color="#43AC20" />
      <stop offset="1" stop-color="#76DF53" />
    </linearGradient>
    <linearGradient id="paint1_linear_23_4566" x1="39066.5" y1="20.4047" x2="39066.5" y2="81519.8" gradientUnits="userSpaceOnUse">
      <stop offset="0.45" stop-color="#43AC20" />
      <stop offset="1" stop-color="#76DF53" />
    </linearGradient>
    <linearGradient id="paint2_linear_23_4566" x1="37225.7" y1="39.8093" x2="37225.7" y2="77658.2" gradientUnits="userSpaceOnUse">
      <stop offset="0.45" stop-color="#43AC20" />
      <stop offset="1" stop-color="#76DF53" />
    </linearGradient>
    <linearGradient id="paint3_linear_23_4566" x1="35384.9" y1="59.2139" x2="35384.9" y2="73796.7" gradientUnits="userSpaceOnUse">
      <stop offset="0.45" stop-color="#43AC20" />
      <stop offset="1" stop-color="#76DF53" />
    </linearGradient>
    <linearGradient id="paint4_linear_23_4566" x1="33544.1" y1="78.6185" x2="33544.1" y2="69935.2" gradientUnits="userSpaceOnUse">
      <stop offset="0.45" stop-color="#43AC20" />
      <stop offset="1" stop-color="#76DF53" />
    </linearGradient>
    <linearGradient id="paint5_linear_23_4566" x1="31703.4" y1="98.0231" x2="31703.4" y2="66073.7" gradientUnits="userSpaceOnUse">
      <stop offset="0.45" stop-color="#43AC20" />
      <stop offset="1" stop-color="#76DF53" />
    </linearGradient>
    <linearGradient id="paint6_linear_23_4566" x1="29862.6" y1="117.428" x2="29862.6" y2="62212.2" gradientUnits="userSpaceOnUse">
      <stop offset="0.45" stop-color="#43AC20" />
      <stop offset="1" stop-color="#76DF53" />
    </linearGradient>
    <linearGradient id="paint7_linear_23_4566" x1="28021.8" y1="136.832" x2="28021.8" y2="58350.7" gradientUnits="userSpaceOnUse">
      <stop offset="0.45" stop-color="#43AC20" />
      <stop offset="1" stop-color="#76DF53" />
    </linearGradient>
    <linearGradient id="paint8_linear_23_4566" x1="26181" y1="156.237" x2="26181" y2="54489.1" gradientUnits="userSpaceOnUse">
      <stop offset="0.45" stop-color="#43AC20" />
      <stop offset="1" stop-color="#76DF53" />
    </linearGradient>
    <linearGradient id="paint9_linear_23_4566" x1="24340.2" y1="175.642" x2="24340.2" y2="50627.6" gradientUnits="userSpaceOnUse">
      <stop offset="0.45" stop-color="#43AC20" />
      <stop offset="1" stop-color="#76DF53" />
    </linearGradient>
    <linearGradient id="paint10_linear_23_4566" x1="22499.4" y1="195.046" x2="22499.4" y2="46766.1" gradientUnits="userSpaceOnUse">
      <stop offset="0.45" stop-color="#43AC20" />
      <stop offset="1" stop-color="#76DF53" />
    </linearGradient>
    <linearGradient id="paint11_linear_23_4566" x1="20658.7" y1="214.451" x2="20658.7" y2="42904.6" gradientUnits="userSpaceOnUse">
      <stop offset="0.45" stop-color="#43AC20" />
      <stop offset="1" stop-color="#76DF53" />
    </linearGradient>
    <linearGradient id="paint12_linear_23_4566" x1="18817.9" y1="233.855" x2="18817.9" y2="39043.1" gradientUnits="userSpaceOnUse">
      <stop offset="0.45" stop-color="#43AC20" />
      <stop offset="1" stop-color="#76DF53" />
    </linearGradient>
    <linearGradient id="paint13_linear_23_4566" x1="16977.1" y1="253.26" x2="16977.1" y2="35181.6" gradientUnits="userSpaceOnUse">
      <stop offset="0.45" stop-color="#43AC20" />
      <stop offset="1" stop-color="#76DF53" />
    </linearGradient>
    <linearGradient id="paint14_linear_23_4566" x1="15136.3" y1="272.665" x2="15136.3" y2="31320" gradientUnits="userSpaceOnUse">
      <stop offset="0.45" stop-color="#43AC20" />
      <stop offset="1" stop-color="#76DF53" />
    </linearGradient>
    <linearGradient id="paint15_linear_23_4566" x1="13295.5" y1="292.069" x2="13295.5" y2="27458.5" gradientUnits="userSpaceOnUse">
      <stop offset="0.45" stop-color="#43AC20" />
      <stop offset="1" stop-color="#76DF53" />
    </linearGradient>
    <linearGradient id="paint16_linear_23_4566" x1="11454.8" y1="311.474" x2="11454.8" y2="23597" gradientUnits="userSpaceOnUse">
      <stop offset="0.45" stop-color="#43AC20" />
      <stop offset="1" stop-color="#76DF53" />
    </linearGradient>
    <linearGradient id="paint17_linear_23_4566" x1="9613.97" y1="330.878" x2="9613.97" y2="19735.5" gradientUnits="userSpaceOnUse">
      <stop offset="0.45" stop-color="#43AC20" />
      <stop offset="1" stop-color="#76DF53" />
    </linearGradient>
    <linearGradient id="paint18_linear_23_4566" x1="7773.19" y1="350.283" x2="7773.19" y2="15874" gradientUnits="userSpaceOnUse">
      <stop offset="0.45" stop-color="#43AC20" />
      <stop offset="1" stop-color="#76DF53" />
    </linearGradient>
    <linearGradient id="paint19_linear_23_4566" x1="5932.41" y1="369.688" x2="5932.41" y2="12012.5" gradientUnits="userSpaceOnUse">
      <stop offset="0.45" stop-color="#43AC20" />
      <stop offset="1" stop-color="#76DF53" />
    </linearGradient>
    <linearGradient id="paint20_linear_23_4566" x1="4091.63" y1="389.092" x2="4091.63" y2="8150.94" gradientUnits="userSpaceOnUse">
      <stop offset="0.45" stop-color="#43AC20" />
      <stop offset="1" stop-color="#76DF53" />
    </linearGradient>
    <linearGradient id="paint21_linear_23_4566" x1="2250.84" y1="408.497" x2="2250.84" y2="4289.42" gradientUnits="userSpaceOnUse">
      <stop offset="0.45" stop-color="#43AC20" />
      <stop offset="1" stop-color="#76DF53" />
    </linearGradient>
  </defs>
</svg>