<svg viewBox="0 0 761 746" fill="none" xmlns="http://www.w3.org/2000/svg">
    <path d="M1 30.02C12.8056 34.395 31.9722 54.9783 57.6667 51.02C83.3611 47.0617 96.5555 12.895 124.333 11.02C152.111 9.14501 163.222 44.1033 191 42.02C218.778 39.9367 229.889 -0.0216531 257.667 1.02001C285.444 2.06168 296.556 45.3533 324.333 47.02C352.111 48.6867 363.222 5.27001 391 9.02001C418.778 12.77 429.889 64.1867 457.667 65.02C485.444 65.8533 496.556 12.1867 524.333 13.02C552.111 13.8533 563.222 69.645 591 69.02C618.778 68.395 629.889 7.93668 657.667 10.02C685.444 12.1033 698.639 74.8533 724.333 79.02C750.028 83.1867 769.194 40.2283 781 30.02" stroke="url(#paint0_linear_23_4614)" stroke-width="2" stroke-linecap="round"/>
    <path d="M1 695.02C12.8056 699.395 31.9722 719.978 57.6667 716.02C83.3611 712.062 96.5555 677.895 124.333 676.02C152.111 674.145 163.222 709.103 191 707.02C218.778 704.937 229.889 664.978 257.667 666.02C285.444 667.062 296.556 710.353 324.333 712.02C352.111 713.687 363.222 670.27 391 674.02C418.778 677.77 429.889 729.187 457.667 730.02C485.444 730.853 496.556 677.187 524.333 678.02C552.111 678.853 563.222 734.645 591 734.02C618.778 733.395 629.889 672.937 657.667 675.02C685.444 677.103 698.639 739.853 724.333 744.02C750.028 748.187 769.194 705.228 781 695.02" stroke="url(#paint1_linear_23_4614)" stroke-width="2" stroke-linecap="round"/>
    <path d="M1 660.02C12.8056 664.395 31.9722 684.978 57.6667 681.02C83.3611 677.062 96.5555 642.895 124.333 641.02C152.111 639.145 163.222 674.103 191 672.02C218.778 669.937 229.889 629.978 257.667 631.02C285.444 632.062 296.556 675.353 324.333 677.02C352.111 678.687 363.222 635.27 391 639.02C418.778 642.77 429.889 694.187 457.667 695.02C485.444 695.853 496.556 642.187 524.333 643.02C552.111 643.853 563.222 699.645 591 699.02C618.778 698.395 629.889 637.937 657.667 640.02C685.444 642.103 698.639 704.853 724.333 709.02C750.028 713.187 769.194 670.228 781 660.02" stroke="url(#paint2_linear_23_4614)" stroke-width="2" stroke-linecap="round"/>
    <path d="M1 625.02C12.8056 629.395 31.9722 649.978 57.6667 646.02C83.3611 642.062 96.5555 607.895 124.333 606.02C152.111 604.145 163.222 639.103 191 637.02C218.778 634.937 229.889 594.978 257.667 596.02C285.444 597.062 296.556 640.353 324.333 642.02C352.111 643.687 363.222 600.27 391 604.02C418.778 607.77 429.889 659.187 457.667 660.02C485.444 660.853 496.556 607.187 524.333 608.02C552.111 608.853 563.222 664.645 591 664.02C618.778 663.395 629.889 602.937 657.667 605.02C685.444 607.103 698.639 669.853 724.333 674.02C750.028 678.187 769.194 635.228 781 625.02" stroke="url(#paint3_linear_23_4614)" stroke-width="2" stroke-linecap="round"/>
    <path d="M1 590.02C12.8056 594.395 31.9722 614.978 57.6667 611.02C83.3611 607.062 96.5555 572.895 124.333 571.02C152.111 569.145 163.222 604.103 191 602.02C218.778 599.937 229.889 559.978 257.667 561.02C285.444 562.062 296.556 605.353 324.333 607.02C352.111 608.687 363.222 565.27 391 569.02C418.778 572.77 429.889 624.187 457.667 625.02C485.444 625.853 496.556 572.187 524.333 573.02C552.111 573.853 563.222 629.645 591 629.02C618.778 628.395 629.889 567.937 657.667 570.02C685.444 572.103 698.639 634.853 724.333 639.02C750.028 643.187 769.194 600.228 781 590.02" stroke="url(#paint4_linear_23_4614)" stroke-width="2" stroke-linecap="round"/>
    <path d="M1 555.02C12.8056 559.395 31.9722 579.978 57.6667 576.02C83.3611 572.062 96.5555 537.895 124.333 536.02C152.111 534.145 163.222 569.103 191 567.02C218.778 564.937 229.889 524.978 257.667 526.02C285.444 527.062 296.556 570.353 324.333 572.02C352.111 573.687 363.222 530.27 391 534.02C418.778 537.77 429.889 589.187 457.667 590.02C485.444 590.853 496.556 537.187 524.333 538.02C552.111 538.853 563.222 594.645 591 594.02C618.778 593.395 629.889 532.937 657.667 535.02C685.444 537.103 698.639 599.853 724.333 604.02C750.028 608.187 769.194 565.228 781 555.02" stroke="url(#paint5_linear_23_4614)" stroke-width="2" stroke-linecap="round"/>
    <path d="M1 520.02C12.8056 524.395 31.9722 544.978 57.6667 541.02C83.3611 537.062 96.5555 502.895 124.333 501.02C152.111 499.145 163.222 534.103 191 532.02C218.778 529.937 229.889 489.978 257.667 491.02C285.444 492.062 296.556 535.353 324.333 537.02C352.111 538.687 363.222 495.27 391 499.02C418.778 502.77 429.889 554.187 457.667 555.02C485.444 555.853 496.556 502.187 524.333 503.02C552.111 503.853 563.222 559.645 591 559.02C618.778 558.395 629.889 497.937 657.667 500.02C685.444 502.103 698.639 564.853 724.333 569.02C750.028 573.187 769.194 530.228 781 520.02" stroke="url(#paint6_linear_23_4614)" stroke-width="2" stroke-linecap="round"/>
    <path d="M1 485.02C12.8056 489.395 31.9722 509.978 57.6667 506.02C83.3611 502.062 96.5555 467.895 124.333 466.02C152.111 464.145 163.222 499.103 191 497.02C218.778 494.937 229.889 454.978 257.667 456.02C285.444 457.062 296.556 500.353 324.333 502.02C352.111 503.687 363.222 460.27 391 464.02C418.778 467.77 429.889 519.187 457.667 520.02C485.444 520.853 496.556 467.187 524.333 468.02C552.111 468.853 563.222 524.645 591 524.02C618.778 523.395 629.889 462.937 657.667 465.02C685.444 467.103 698.639 529.853 724.333 534.02C750.028 538.187 769.194 495.228 781 485.02" stroke="url(#paint7_linear_23_4614)" stroke-width="2" stroke-linecap="round"/>
    <path d="M1 450.02C12.8056 454.395 31.9722 474.978 57.6667 471.02C83.3611 467.062 96.5555 432.895 124.333 431.02C152.111 429.145 163.222 464.103 191 462.02C218.778 459.937 229.889 419.978 257.667 421.02C285.444 422.062 296.556 465.353 324.333 467.02C352.111 468.687 363.222 425.27 391 429.02C418.778 432.77 429.889 484.187 457.667 485.02C485.444 485.853 496.556 432.187 524.333 433.02C552.111 433.853 563.222 489.645 591 489.02C618.778 488.395 629.889 427.937 657.667 430.02C685.444 432.103 698.639 494.853 724.333 499.02C750.028 503.187 769.194 460.228 781 450.02" stroke="url(#paint8_linear_23_4614)" stroke-width="2" stroke-linecap="round"/>
    <path d="M1 415.02C12.8056 419.395 31.9722 439.978 57.6667 436.02C83.3611 432.062 96.5555 397.895 124.333 396.02C152.111 394.145 163.222 429.103 191 427.02C218.778 424.937 229.889 384.978 257.667 386.02C285.444 387.062 296.556 430.353 324.333 432.02C352.111 433.687 363.222 390.27 391 394.02C418.778 397.77 429.889 449.187 457.667 450.02C485.444 450.853 496.556 397.187 524.333 398.02C552.111 398.853 563.222 454.645 591 454.02C618.778 453.395 629.889 392.937 657.667 395.02C685.444 397.103 698.639 459.853 724.333 464.02C750.028 468.187 769.194 425.228 781 415.02" stroke="url(#paint9_linear_23_4614)" stroke-width="2" stroke-linecap="round"/>
    <path d="M1 380.02C12.8056 384.395 31.9722 404.978 57.6667 401.02C83.3611 397.062 96.5555 362.895 124.333 361.02C152.111 359.145 163.222 394.103 191 392.02C218.778 389.937 229.889 349.978 257.667 351.02C285.444 352.062 296.556 395.353 324.333 397.02C352.111 398.687 363.222 355.27 391 359.02C418.778 362.77 429.889 414.187 457.667 415.02C485.444 415.853 496.556 362.187 524.333 363.02C552.111 363.853 563.222 419.645 591 419.02C618.778 418.395 629.889 357.937 657.667 360.02C685.444 362.103 698.639 424.853 724.333 429.02C750.028 433.187 769.194 390.228 781 380.02" stroke="url(#paint10_linear_23_4614)" stroke-width="2" stroke-linecap="round"/>
    <path d="M1 345.02C12.8056 349.395 31.9722 369.978 57.6667 366.02C83.3611 362.062 96.5555 327.895 124.333 326.02C152.111 324.145 163.222 359.103 191 357.02C218.778 354.937 229.889 314.978 257.667 316.02C285.444 317.062 296.556 360.353 324.333 362.02C352.111 363.687 363.222 320.27 391 324.02C418.778 327.77 429.889 379.187 457.667 380.02C485.444 380.853 496.556 327.187 524.333 328.02C552.111 328.853 563.222 384.645 591 384.02C618.778 383.395 629.889 322.937 657.667 325.02C685.444 327.103 698.639 389.853 724.333 394.02C750.028 398.187 769.194 355.228 781 345.02" stroke="url(#paint11_linear_23_4614)" stroke-width="2" stroke-linecap="round"/>
    <path d="M1 310.02C12.8056 314.395 31.9722 334.978 57.6667 331.02C83.3611 327.062 96.5555 292.895 124.333 291.02C152.111 289.145 163.222 324.103 191 322.02C218.778 319.937 229.889 279.978 257.667 281.02C285.444 282.062 296.556 325.353 324.333 327.02C352.111 328.687 363.222 285.27 391 289.02C418.778 292.77 429.889 344.187 457.667 345.02C485.444 345.853 496.556 292.187 524.333 293.02C552.111 293.853 563.222 349.645 591 349.02C618.778 348.395 629.889 287.937 657.667 290.02C685.444 292.103 698.639 354.853 724.333 359.02C750.028 363.187 769.194 320.228 781 310.02" stroke="url(#paint12_linear_23_4614)" stroke-width="2" stroke-linecap="round"/>
    <path d="M1 275.02C12.8056 279.395 31.9722 299.978 57.6667 296.02C83.3611 292.062 96.5555 257.895 124.333 256.02C152.111 254.145 163.222 289.103 191 287.02C218.778 284.937 229.889 244.978 257.667 246.02C285.444 247.062 296.556 290.353 324.333 292.02C352.111 293.687 363.222 250.27 391 254.02C418.778 257.77 429.889 309.187 457.667 310.02C485.444 310.853 496.556 257.187 524.333 258.02C552.111 258.853 563.222 314.645 591 314.02C618.778 313.395 629.889 252.937 657.667 255.02C685.444 257.103 698.639 319.853 724.333 324.02C750.028 328.187 769.194 285.228 781 275.02" stroke="url(#paint13_linear_23_4614)" stroke-width="2" stroke-linecap="round"/>
    <path d="M1 240.02C12.8056 244.395 31.9722 264.978 57.6667 261.02C83.3611 257.062 96.5555 222.895 124.333 221.02C152.111 219.145 163.222 254.103 191 252.02C218.778 249.937 229.889 209.978 257.667 211.02C285.444 212.062 296.556 255.353 324.333 257.02C352.111 258.687 363.222 215.27 391 219.02C418.778 222.77 429.889 274.187 457.667 275.02C485.444 275.853 496.556 222.187 524.333 223.02C552.111 223.853 563.222 279.645 591 279.02C618.778 278.395 629.889 217.937 657.667 220.02C685.444 222.103 698.639 284.853 724.333 289.02C750.028 293.187 769.194 250.228 781 240.02" stroke="url(#paint14_linear_23_4614)" stroke-width="2" stroke-linecap="round"/>
    <path d="M1 205.02C12.8056 209.395 31.9722 229.978 57.6667 226.02C83.3611 222.062 96.5555 187.895 124.333 186.02C152.111 184.145 163.222 219.103 191 217.02C218.778 214.937 229.889 174.978 257.667 176.02C285.444 177.062 296.556 220.353 324.333 222.02C352.111 223.687 363.222 180.27 391 184.02C418.778 187.77 429.889 239.187 457.667 240.02C485.444 240.853 496.556 187.187 524.333 188.02C552.111 188.853 563.222 244.645 591 244.02C618.778 243.395 629.889 182.937 657.667 185.02C685.444 187.103 698.639 249.853 724.333 254.02C750.028 258.187 769.194 215.228 781 205.02" stroke="url(#paint15_linear_23_4614)" stroke-width="2" stroke-linecap="round"/>
    <path d="M1 170.02C12.8056 174.395 31.9722 194.978 57.6667 191.02C83.3611 187.062 96.5555 152.895 124.333 151.02C152.111 149.145 163.222 184.103 191 182.02C218.778 179.937 229.889 139.978 257.667 141.02C285.444 142.062 296.556 185.353 324.333 187.02C352.111 188.687 363.222 145.27 391 149.02C418.778 152.77 429.889 204.187 457.667 205.02C485.444 205.853 496.556 152.187 524.333 153.02C552.111 153.853 563.222 209.645 591 209.02C618.778 208.395 629.889 147.937 657.667 150.02C685.444 152.103 698.639 214.853 724.333 219.02C750.028 223.187 769.194 180.228 781 170.02" stroke="url(#paint16_linear_23_4614)" stroke-width="2" stroke-linecap="round"/>
    <path d="M1 135.02C12.8056 139.395 31.9722 159.978 57.6667 156.02C83.3611 152.062 96.5555 117.895 124.333 116.02C152.111 114.145 163.222 149.103 191 147.02C218.778 144.937 229.889 104.978 257.667 106.02C285.444 107.062 296.556 150.353 324.333 152.02C352.111 153.687 363.222 110.27 391 114.02C418.778 117.77 429.889 169.187 457.667 170.02C485.444 170.853 496.556 117.187 524.333 118.02C552.111 118.853 563.222 174.645 591 174.02C618.778 173.395 629.889 112.937 657.667 115.02C685.444 117.103 698.639 179.853 724.333 184.02C750.028 188.187 769.194 145.228 781 135.02" stroke="url(#paint17_linear_23_4614)" stroke-width="2" stroke-linecap="round"/>
    <path d="M1 100.02C12.8056 104.395 31.9722 124.978 57.6667 121.02C83.3611 117.062 96.5555 82.895 124.333 81.02C152.111 79.145 163.222 114.103 191 112.02C218.778 109.937 229.889 69.9783 257.667 71.02C285.444 72.0617 296.556 115.353 324.333 117.02C352.111 118.687 363.222 75.27 391 79.02C418.778 82.77 429.889 134.187 457.667 135.02C485.444 135.853 496.556 82.1867 524.333 83.02C552.111 83.8533 563.222 139.645 591 139.02C618.778 138.395 629.889 77.9367 657.667 80.02C685.444 82.1033 698.639 144.853 724.333 149.02C750.028 153.187 769.194 110.228 781 100.02" stroke="url(#paint18_linear_23_4614)" stroke-width="2" stroke-linecap="round"/>
    <path d="M1 65.02C12.8056 69.395 31.9722 89.9783 57.6667 86.02C83.3611 82.0617 96.5555 47.895 124.333 46.02C152.111 44.145 163.222 79.1033 191 77.02C218.778 74.9367 229.889 34.9783 257.667 36.02C285.444 37.0617 296.556 80.3533 324.333 82.02C352.111 83.6867 363.222 40.27 391 44.02C418.778 47.77 429.889 99.1867 457.667 100.02C485.444 100.853 496.556 47.1867 524.333 48.02C552.111 48.8533 563.222 104.645 591 104.02C618.778 103.395 629.889 42.9367 657.667 45.02C685.444 47.1033 698.639 109.853 724.333 114.02C750.028 118.187 769.194 75.2283 781 65.02" stroke="url(#paint19_linear_23_4614)" stroke-width="2" stroke-linecap="round"/>
    <defs>
        <linearGradient id="paint0_linear_23_4614" x1="-28.02" y1="-38990" x2="7802.34" y2="-38990" gradientUnits="userSpaceOnUse">
            <stop stop-color="#43AC20"/>
            <stop offset="1" stop-color="#76DF53"/>
        </linearGradient>
        <linearGradient id="paint1_linear_23_4614" x1="-28.02" y1="-38325" x2="7802.34" y2="-38325" gradientUnits="userSpaceOnUse">
            <stop stop-color="#43AC20"/>
            <stop offset="1" stop-color="#76DF53"/>
        </linearGradient>
        <linearGradient id="paint2_linear_23_4614" x1="-28.02" y1="-38360" x2="7802.34" y2="-38360" gradientUnits="userSpaceOnUse">
            <stop stop-color="#43AC20"/>
            <stop offset="1" stop-color="#76DF53"/>
        </linearGradient>
        <linearGradient id="paint3_linear_23_4614" x1="-28.02" y1="-38395" x2="7802.34" y2="-38395" gradientUnits="userSpaceOnUse">
            <stop stop-color="#43AC20"/>
            <stop offset="1" stop-color="#76DF53"/>
        </linearGradient>
        <linearGradient id="paint4_linear_23_4614" x1="-28.02" y1="-38430" x2="7802.34" y2="-38430" gradientUnits="userSpaceOnUse">
            <stop stop-color="#43AC20"/>
            <stop offset="1" stop-color="#76DF53"/>
        </linearGradient>
        <linearGradient id="paint5_linear_23_4614" x1="-28.02" y1="-38465" x2="7802.34" y2="-38465" gradientUnits="userSpaceOnUse">
            <stop stop-color="#43AC20"/>
            <stop offset="1" stop-color="#76DF53"/>
        </linearGradient>
        <linearGradient id="paint6_linear_23_4614" x1="-28.02" y1="-38500" x2="7802.34" y2="-38500" gradientUnits="userSpaceOnUse">
            <stop stop-color="#43AC20"/>
            <stop offset="1" stop-color="#76DF53"/>
        </linearGradient>
        <linearGradient id="paint7_linear_23_4614" x1="-28.02" y1="-38535" x2="7802.34" y2="-38535" gradientUnits="userSpaceOnUse">
            <stop stop-color="#43AC20"/>
            <stop offset="1" stop-color="#76DF53"/>
        </linearGradient>
        <linearGradient id="paint8_linear_23_4614" x1="-28.02" y1="-38570" x2="7802.34" y2="-38570" gradientUnits="userSpaceOnUse">
            <stop stop-color="#43AC20"/>
            <stop offset="1" stop-color="#76DF53"/>
        </linearGradient>
        <linearGradient id="paint9_linear_23_4614" x1="-28.02" y1="-38605" x2="7802.34" y2="-38605" gradientUnits="userSpaceOnUse">
            <stop stop-color="#43AC20"/>
            <stop offset="1" stop-color="#76DF53"/>
        </linearGradient>
        <linearGradient id="paint10_linear_23_4614" x1="-28.02" y1="-38640" x2="7802.34" y2="-38640" gradientUnits="userSpaceOnUse">
            <stop stop-color="#43AC20"/>
            <stop offset="1" stop-color="#76DF53"/>
        </linearGradient>
        <linearGradient id="paint11_linear_23_4614" x1="-28.02" y1="-38675" x2="7802.34" y2="-38675" gradientUnits="userSpaceOnUse">
            <stop stop-color="#43AC20"/>
            <stop offset="1" stop-color="#76DF53"/>
        </linearGradient>
        <linearGradient id="paint12_linear_23_4614" x1="-28.02" y1="-38710" x2="7802.34" y2="-38710" gradientUnits="userSpaceOnUse">
            <stop stop-color="#43AC20"/>
            <stop offset="1" stop-color="#76DF53"/>
        </linearGradient>
        <linearGradient id="paint13_linear_23_4614" x1="-28.02" y1="-38745" x2="7802.34" y2="-38745" gradientUnits="userSpaceOnUse">
            <stop stop-color="#43AC20"/>
            <stop offset="1" stop-color="#76DF53"/>
        </linearGradient>
        <linearGradient id="paint14_linear_23_4614" x1="-28.02" y1="-38780" x2="7802.34" y2="-38780" gradientUnits="userSpaceOnUse">
            <stop stop-color="#43AC20"/>
            <stop offset="1" stop-color="#76DF53"/>
        </linearGradient>
        <linearGradient id="paint15_linear_23_4614" x1="-28.02" y1="-38815" x2="7802.34" y2="-38815" gradientUnits="userSpaceOnUse">
            <stop stop-color="#43AC20"/>
            <stop offset="1" stop-color="#76DF53"/>
        </linearGradient>
        <linearGradient id="paint16_linear_23_4614" x1="-28.02" y1="-38850" x2="7802.34" y2="-38850" gradientUnits="userSpaceOnUse">
            <stop stop-color="#43AC20"/>
            <stop offset="1" stop-color="#76DF53"/>
        </linearGradient>
        <linearGradient id="paint17_linear_23_4614" x1="-28.02" y1="-38885" x2="7802.34" y2="-38885" gradientUnits="userSpaceOnUse">
            <stop stop-color="#43AC20"/>
            <stop offset="1" stop-color="#76DF53"/>
        </linearGradient>
        <linearGradient id="paint18_linear_23_4614" x1="-28.02" y1="-38920" x2="7802.34" y2="-38920" gradientUnits="userSpaceOnUse">
            <stop stop-color="#43AC20"/>
            <stop offset="1" stop-color="#76DF53"/>
        </linearGradient>
        <linearGradient id="paint19_linear_23_4614" x1="-28.02" y1="-38955" x2="7802.34" y2="-38955" gradientUnits="userSpaceOnUse">
            <stop stop-color="#43AC20"/>
            <stop offset="1" stop-color="#76DF53"/>
        </linearGradient>
    </defs>
</svg>
