<svg width="406" height="687" viewBox="0 0 406 687" fill="none" xmlns="http://www.w3.org/2000/svg">
<path d="M-236.159 285.247C-275.061 164.066 -219.758 111.84 -153.637 65.3388C-87.5161 18.8376 -28.6109 8.29034 81.2221 62.0418C191.055 115.793 383.588 201.477 373.561 323.346C363.534 445.215 160.116 654.948 33.0913 647.011" stroke="url(#paint0_linear_23_4590)" stroke-width="2"/>
<path d="M-223.087 287.896C-260.22 172.222 -207.431 122.37 -144.316 77.9827C-81.2001 33.5953 -24.9725 23.5275 79.8681 74.8357C184.709 126.144 368.491 207.933 358.919 324.262C349.348 440.591 155.176 640.792 33.9251 633.216" stroke="url(#paint1_linear_23_4590)" stroke-width="2"/>
<path d="M-210.014 290.544C-245.379 180.379 -195.104 132.901 -134.994 90.6269C-74.884 48.3531 -21.3339 38.7647 78.5142 87.6297C178.362 136.495 353.393 214.389 344.277 325.179C335.161 435.969 150.236 626.636 34.759 619.42" stroke="url(#paint2_linear_23_4590)" stroke-width="2"/>
<path d="M-196.942 293.192C-230.539 188.535 -182.777 143.431 -125.673 103.271C-68.5681 63.1109 -17.6954 54.0019 77.1603 100.424C172.016 146.845 338.295 220.845 329.635 326.095C320.975 431.346 145.296 612.479 35.5928 605.625" stroke="url(#paint3_linear_23_4590)" stroke-width="2"/>
<path d="M-183.869 295.84C-215.698 196.692 -170.45 153.962 -116.351 115.915C-62.2518 77.8687 -14.0567 69.2392 75.8067 113.218C165.67 157.196 323.197 227.301 314.993 327.012C306.789 426.723 140.357 598.323 36.4269 591.829" stroke="url(#paint4_linear_23_4590)" stroke-width="2"/>
<path d="M-170.796 298.489C-200.857 204.848 -158.123 164.492 -107.029 128.559C-55.9359 92.6264 -10.4182 84.4763 74.4527 126.012C159.324 167.547 308.099 233.757 300.351 327.928C292.603 422.1 135.416 584.167 37.2607 578.033" stroke="url(#paint5_linear_23_4590)" stroke-width="2"/>
<path d="M-157.724 301.137C-186.016 213.005 -145.796 175.022 -97.7079 141.203C-49.6198 107.384 -6.77969 99.7135 73.0988 138.806C152.977 177.898 293.002 240.213 285.709 328.845C278.417 417.477 130.476 570.01 38.0946 564.238" stroke="url(#paint6_linear_23_4590)" stroke-width="2"/>
<path d="M-144.651 303.785C-171.175 221.161 -133.469 185.553 -88.3861 153.847C-43.3036 122.142 -3.14096 114.951 71.7452 151.599C146.631 188.248 277.904 246.669 271.067 329.761C264.231 412.854 125.537 555.854 38.9287 550.442" stroke="url(#paint7_linear_23_4590)" stroke-width="2"/>
<path d="M-131.579 306.433C-156.334 229.318 -121.142 196.083 -79.0646 166.491C-36.9876 136.9 0.497549 130.188 70.3913 164.393C140.285 198.599 262.806 253.125 256.425 330.678C250.044 408.231 120.597 541.698 39.7626 536.647" stroke="url(#paint8_linear_23_4590)" stroke-width="2"/>
<path d="M-118.506 309.082C-141.494 237.474 -108.815 206.613 -69.7431 179.136C-30.6716 151.658 4.13604 145.425 69.0373 177.187C133.939 208.95 247.708 259.581 241.783 331.594C235.858 403.608 115.657 527.541 40.5964 522.851" stroke="url(#paint9_linear_23_4590)" stroke-width="2"/>
<path d="M-105.434 311.73C-126.653 245.631 -96.4877 217.144 -60.4216 191.78C-24.3556 166.415 7.77453 160.662 67.6834 189.981C127.592 219.3 232.611 266.037 227.141 332.511C221.672 398.985 110.717 513.385 41.4303 509.056" stroke="url(#paint10_linear_23_4590)" stroke-width="2"/>
<path d="M-92.3611 314.378C-111.812 253.787 -84.1606 227.674 -51.1001 204.424C-18.0395 181.173 11.413 175.9 66.3295 202.775C121.246 229.651 217.513 272.493 212.499 333.427C207.485 394.362 105.777 499.229 42.2641 495.26" stroke="url(#paint11_linear_23_4590)" stroke-width="2"/>
<path d="M-79.2884 317.026C-96.971 261.944 -71.8334 238.205 -41.7783 217.068C-11.7233 195.931 15.0518 191.137 64.9759 215.569C114.9 240.002 202.415 278.949 197.857 334.344C193.299 389.739 100.837 485.072 43.0983 481.464" stroke="url(#paint12_linear_23_4590)" stroke-width="2"/>
<path d="M-66.2158 319.675C-82.1302 270.1 -59.5064 248.735 -32.4568 229.712C-5.40729 210.689 18.6903 206.374 63.6219 228.363C108.554 250.352 187.317 285.405 183.215 335.26C179.113 385.116 95.8969 470.916 43.9321 467.669" stroke="url(#paint13_linear_23_4590)" stroke-width="2"/>
<path d="M-53.1433 322.323C-67.2894 278.257 -47.1793 259.265 -23.1353 242.356C0.908731 225.446 22.3288 221.611 62.2681 241.157C102.207 260.703 172.219 291.861 168.573 336.177C164.927 380.493 90.9569 456.759 44.766 453.873" stroke="url(#paint14_linear_23_4590)" stroke-width="2"/>
<path d="M-40.0709 324.971C-52.4487 286.413 -34.8524 269.796 -13.8138 255C7.2247 240.204 25.9673 236.848 60.9141 253.951C95.861 271.054 157.122 298.317 153.931 337.093C150.741 375.87 86.0168 442.603 45.5998 440.078" stroke="url(#paint15_linear_23_4590)" stroke-width="2"/>
<path d="M-26.9981 327.619C-37.6076 294.57 -22.5251 280.326 -4.49205 267.644C13.541 254.962 29.606 252.085 59.5605 266.745C89.5149 281.404 142.024 304.773 139.289 338.01C136.555 371.247 81.0771 428.447 46.4339 426.282" stroke="url(#paint16_linear_23_4590)" stroke-width="2"/>
<path d="M-13.9255 330.268C-22.7668 302.726 -10.1981 290.857 4.82947 280.288C19.857 269.72 33.2445 267.323 58.2066 279.539C83.1686 291.755 126.926 311.229 124.647 338.926C122.368 366.624 76.1371 414.291 47.2678 412.487" stroke="url(#paint17_linear_23_4590)" stroke-width="2"/>
<path d="M-0.853036 332.916C-7.92608 310.883 2.12897 301.387 14.151 292.932C26.173 284.478 36.883 282.56 56.8527 292.333C76.8223 302.106 111.828 317.685 110.005 339.843C108.182 362.001 71.1971 400.134 48.1016 398.691" stroke="url(#paint18_linear_23_4590)" stroke-width="2"/>
<path d="M12.2197 335.564C6.91495 319.039 14.4562 311.917 23.4727 305.576C32.4892 299.235 40.5218 297.797 55.499 305.127C70.4762 312.457 96.7308 324.141 95.3634 340.759C93.9961 357.378 66.2573 385.978 48.9357 384.895" stroke="url(#paint19_linear_23_4590)" stroke-width="2"/>
<path d="M25.292 338.212C21.7555 327.196 26.783 322.448 32.794 318.221C38.805 313.993 44.16 313.034 54.1448 317.921C64.1296 322.807 81.6327 330.597 80.7211 341.676C79.8095 352.755 61.317 371.821 49.7693 371.1" stroke="url(#paint20_linear_23_4590)" stroke-width="2"/>
<path d="M38.3647 340.86C36.5965 335.352 39.1102 332.978 42.1157 330.865C45.1212 328.751 47.7987 328.271 52.7911 330.715C57.7835 333.158 66.5351 337.053 66.0793 342.592C65.6235 348.132 56.3772 357.665 50.6034 357.304" stroke="url(#paint21_linear_23_4590)" stroke-width="2"/>
<defs>
<linearGradient id="paint0_linear_23_4590" x1="-3623.63" y1="30168.4" x2="-66414.8" y2="21758.3" gradientUnits="userSpaceOnUse">
<stop offset="0.45" stop-color="#43AC20"/>
<stop offset="1" stop-color="#76DF53"/>
</linearGradient>
<linearGradient id="paint1_linear_23_4590" x1="-3456.58" y1="28812.7" x2="-63393.6" y2="20784.9" gradientUnits="userSpaceOnUse">
<stop offset="0.45" stop-color="#43AC20"/>
<stop offset="1" stop-color="#76DF53"/>
</linearGradient>
<linearGradient id="paint2_linear_23_4590" x1="-3289.53" y1="27457.1" x2="-60372.4" y2="19811.5" gradientUnits="userSpaceOnUse">
<stop offset="0.45" stop-color="#43AC20"/>
<stop offset="1" stop-color="#76DF53"/>
</linearGradient>
<linearGradient id="paint3_linear_23_4590" x1="-3122.48" y1="26101.4" x2="-57351.2" y2="18838.1" gradientUnits="userSpaceOnUse">
<stop offset="0.45" stop-color="#43AC20"/>
<stop offset="1" stop-color="#76DF53"/>
</linearGradient>
<linearGradient id="paint4_linear_23_4590" x1="-2955.43" y1="24745.7" x2="-54330.1" y2="17864.7" gradientUnits="userSpaceOnUse">
<stop offset="0.45" stop-color="#43AC20"/>
<stop offset="1" stop-color="#76DF53"/>
</linearGradient>
<linearGradient id="paint5_linear_23_4590" x1="-2788.39" y1="23390" x2="-51308.9" y2="16891.3" gradientUnits="userSpaceOnUse">
<stop offset="0.45" stop-color="#43AC20"/>
<stop offset="1" stop-color="#76DF53"/>
</linearGradient>
<linearGradient id="paint6_linear_23_4590" x1="-2621.34" y1="22034.3" x2="-48287.7" y2="15917.9" gradientUnits="userSpaceOnUse">
<stop offset="0.45" stop-color="#43AC20"/>
<stop offset="1" stop-color="#76DF53"/>
</linearGradient>
<linearGradient id="paint7_linear_23_4590" x1="-2454.29" y1="20678.7" x2="-45266.5" y2="14944.5" gradientUnits="userSpaceOnUse">
<stop offset="0.45" stop-color="#43AC20"/>
<stop offset="1" stop-color="#76DF53"/>
</linearGradient>
<linearGradient id="paint8_linear_23_4590" x1="-2287.24" y1="19323" x2="-42245.3" y2="13971.1" gradientUnits="userSpaceOnUse">
<stop offset="0.45" stop-color="#43AC20"/>
<stop offset="1" stop-color="#76DF53"/>
</linearGradient>
<linearGradient id="paint9_linear_23_4590" x1="-2120.19" y1="17967.3" x2="-39224.1" y2="12997.7" gradientUnits="userSpaceOnUse">
<stop offset="0.45" stop-color="#43AC20"/>
<stop offset="1" stop-color="#76DF53"/>
</linearGradient>
<linearGradient id="paint10_linear_23_4590" x1="-1953.14" y1="16611.6" x2="-36202.9" y2="12024.3" gradientUnits="userSpaceOnUse">
<stop offset="0.45" stop-color="#43AC20"/>
<stop offset="1" stop-color="#76DF53"/>
</linearGradient>
<linearGradient id="paint11_linear_23_4590" x1="-1786.1" y1="15256" x2="-33181.7" y2="11050.9" gradientUnits="userSpaceOnUse">
<stop offset="0.45" stop-color="#43AC20"/>
<stop offset="1" stop-color="#76DF53"/>
</linearGradient>
<linearGradient id="paint12_linear_23_4590" x1="-1619.05" y1="13900.3" x2="-30160.5" y2="10077.5" gradientUnits="userSpaceOnUse">
<stop offset="0.45" stop-color="#43AC20"/>
<stop offset="1" stop-color="#76DF53"/>
</linearGradient>
<linearGradient id="paint13_linear_23_4590" x1="-1452" y1="12544.6" x2="-27139.3" y2="9104.12" gradientUnits="userSpaceOnUse">
<stop offset="0.45" stop-color="#43AC20"/>
<stop offset="1" stop-color="#76DF53"/>
</linearGradient>
<linearGradient id="paint14_linear_23_4590" x1="-1284.95" y1="11188.9" x2="-24118.1" y2="8130.72" gradientUnits="userSpaceOnUse">
<stop offset="0.45" stop-color="#43AC20"/>
<stop offset="1" stop-color="#76DF53"/>
</linearGradient>
<linearGradient id="paint15_linear_23_4590" x1="-1117.9" y1="9833.25" x2="-21096.9" y2="7157.32" gradientUnits="userSpaceOnUse">
<stop offset="0.45" stop-color="#43AC20"/>
<stop offset="1" stop-color="#76DF53"/>
</linearGradient>
<linearGradient id="paint16_linear_23_4590" x1="-950.853" y1="8477.57" x2="-18075.7" y2="6183.92" gradientUnits="userSpaceOnUse">
<stop offset="0.45" stop-color="#43AC20"/>
<stop offset="1" stop-color="#76DF53"/>
</linearGradient>
<linearGradient id="paint17_linear_23_4590" x1="-783.805" y1="7121.89" x2="-15054.5" y2="5210.52" gradientUnits="userSpaceOnUse">
<stop offset="0.45" stop-color="#43AC20"/>
<stop offset="1" stop-color="#76DF53"/>
</linearGradient>
<linearGradient id="paint18_linear_23_4590" x1="-616.757" y1="5766.22" x2="-12033.3" y2="4237.12" gradientUnits="userSpaceOnUse">
<stop offset="0.45" stop-color="#43AC20"/>
<stop offset="1" stop-color="#76DF53"/>
</linearGradient>
<linearGradient id="paint19_linear_23_4590" x1="-449.708" y1="4410.54" x2="-9012.14" y2="3263.71" gradientUnits="userSpaceOnUse">
<stop offset="0.45" stop-color="#43AC20"/>
<stop offset="1" stop-color="#76DF53"/>
</linearGradient>
<linearGradient id="paint20_linear_23_4590" x1="-282.66" y1="3054.86" x2="-5990.95" y2="2290.31" gradientUnits="userSpaceOnUse">
<stop offset="0.45" stop-color="#43AC20"/>
<stop offset="1" stop-color="#76DF53"/>
</linearGradient>
<linearGradient id="paint21_linear_23_4590" x1="-115.611" y1="1699.19" x2="-2969.76" y2="1316.91" gradientUnits="userSpaceOnUse">
<stop offset="0.45" stop-color="#43AC20"/>
<stop offset="1" stop-color="#76DF53"/>
</linearGradient>
</defs>
</svg>
