<svg width="547" height="669" viewBox="0 0 547 669" fill="none" xmlns="http://www.w3.org/2000/svg">
<path d="M-78.4389 277.616C-116.328 159.588 -62.4649 108.721 1.93529 63.4304C66.3355 18.1395 123.708 7.86677 230.682 60.2193C337.656 112.572 525.179 196.026 515.412 314.722C505.646 433.419 307.523 637.694 183.804 629.964" stroke="url(#paint0_linear_23_4661)" stroke-width="2"/>
<path d="M-65.7068 280.195C-101.874 167.532 -50.4588 118.978 11.0141 75.7453C72.487 32.5131 127.251 22.7073 229.363 72.6802C331.475 122.653 510.474 202.314 501.151 315.615C491.829 428.916 302.711 623.906 184.616 616.527" stroke="url(#paint1_linear_23_4661)" stroke-width="2"/>
<path d="M-52.9743 282.775C-87.4191 175.477 -38.4524 129.234 20.0932 88.0607C78.6388 46.8872 130.795 37.5483 228.045 85.1415C325.294 132.735 495.769 208.602 486.89 316.508C478.012 424.414 297.9 610.119 185.428 603.091" stroke="url(#paint2_linear_23_4661)" stroke-width="2"/>
<path d="M-40.2422 285.354C-72.9648 183.42 -26.4465 139.49 29.1719 100.375C84.7902 61.2605 134.339 52.3886 226.726 97.6022C319.113 142.816 481.064 214.89 472.629 317.4C464.195 419.911 293.088 596.331 186.24 589.654" stroke="url(#paint3_linear_23_4661)" stroke-width="2"/>
<path d="M-27.5099 287.933C-58.5102 191.365 -14.4402 149.747 38.2509 112.69C90.942 75.6341 137.883 67.2292 225.407 110.063C312.932 152.897 466.359 221.177 458.368 318.293C450.378 415.408 288.277 582.543 187.052 576.218" stroke="url(#paint4_linear_23_4661)" stroke-width="2"/>
<path d="M-14.7775 290.512C-44.0556 199.309 -2.43391 160.003 47.3299 125.006C97.0936 90.0082 141.427 82.0702 224.089 122.524C306.751 162.979 451.654 227.466 444.108 319.186C436.561 410.906 283.466 568.755 187.865 562.781" stroke="url(#paint5_linear_23_4661)" stroke-width="2"/>
<path d="M-2.04534 293.092C-29.6012 207.253 9.57212 170.259 56.4086 137.321C103.245 104.382 144.97 96.9107 222.77 134.985C300.569 173.06 436.949 233.754 429.846 320.079C422.744 406.403 278.654 554.967 188.677 549.345" stroke="url(#paint6_linear_23_4661)" stroke-width="2"/>
<path d="M10.6872 295.671C-15.1464 215.197 21.5787 180.515 65.4879 149.635C109.397 118.755 148.514 111.751 221.451 147.446C294.389 183.141 422.245 240.041 415.586 320.971C408.927 401.9 273.843 541.179 189.489 535.908" stroke="url(#paint7_linear_23_4661)" stroke-width="2"/>
<path d="M23.4197 298.25C-0.691661 223.142 33.585 190.772 74.5669 161.951C115.549 133.129 152.058 126.592 220.133 159.907C288.208 193.223 407.54 246.33 401.325 321.864C395.11 397.398 269.032 527.391 190.301 522.472" stroke="url(#paint8_linear_23_4661)" stroke-width="2"/>
<path d="M36.1518 300.83C13.7627 231.086 45.591 201.028 83.6456 174.266C121.7 147.503 155.602 141.433 218.814 172.368C282.026 203.304 392.835 252.617 387.064 322.756C381.293 392.895 264.22 513.603 191.113 509.035" stroke="url(#paint9_linear_23_4661)" stroke-width="2"/>
<path d="M48.8841 303.409C28.2173 239.03 57.5972 211.285 92.7246 186.581C127.852 161.876 159.146 156.273 217.495 184.829C275.845 213.385 378.13 258.905 372.803 323.649C367.476 388.393 259.409 499.815 191.926 495.599" stroke="url(#paint10_linear_23_4661)" stroke-width="2"/>
<path d="M61.6165 305.988C42.6718 246.974 69.6035 221.541 101.804 198.895C134.004 176.25 162.69 171.114 216.177 197.29C269.664 223.466 363.425 265.193 358.542 324.542C353.659 383.89 254.597 486.027 192.738 482.162" stroke="url(#paint11_linear_23_4661)" stroke-width="2"/>
<path d="M74.3491 308.568C57.1267 254.919 81.6101 231.797 110.883 211.211C140.156 190.624 166.234 185.954 214.859 209.751C263.483 233.548 348.721 271.481 344.282 325.434C339.842 379.387 249.786 472.24 193.55 468.726" stroke="url(#paint12_linear_23_4661)" stroke-width="2"/>
<path d="M87.0813 311.147C71.5811 262.863 93.6161 242.054 119.962 223.526C146.307 204.997 169.778 200.795 213.54 222.212C257.302 243.629 334.016 277.769 330.02 326.327C326.025 374.885 244.975 458.452 194.362 455.289" stroke="url(#paint13_linear_23_4661)" stroke-width="2"/>
<path d="M99.8136 313.726C86.0357 270.807 105.622 252.31 129.041 235.841C152.459 219.371 173.321 215.636 212.221 234.673C251.121 253.71 319.311 284.057 315.76 327.219C312.208 370.382 240.163 444.664 195.175 441.853" stroke="url(#paint14_linear_23_4661)" stroke-width="2"/>
<path d="M112.546 316.305C100.49 278.751 117.629 262.566 138.12 248.156C158.611 233.745 176.865 230.476 210.903 247.134C244.94 263.792 304.606 290.345 301.499 328.112C298.391 365.879 235.352 430.876 195.987 428.416" stroke="url(#paint15_linear_23_4661)" stroke-width="2"/>
<path d="M125.278 318.885C114.945 286.695 129.635 272.823 147.198 260.471C164.762 248.119 180.409 245.317 209.584 259.595C238.759 273.873 289.901 296.633 287.238 329.005C284.574 361.377 230.54 417.088 196.799 414.98" stroke="url(#paint16_linear_23_4661)" stroke-width="2"/>
<path d="M138.011 321.464C129.399 294.639 141.641 283.079 156.277 272.786C170.914 262.492 183.953 260.157 208.265 272.056C232.578 283.954 275.196 302.921 272.977 329.897C270.757 356.874 225.729 403.3 197.611 401.543" stroke="url(#paint17_linear_23_4661)" stroke-width="2"/>
<path d="M150.743 324.043C143.854 302.584 153.647 293.335 165.356 285.1C177.065 276.866 187.497 274.998 206.946 284.517C226.396 294.035 260.491 309.209 258.716 330.79C256.94 352.371 220.918 389.512 198.423 388.107" stroke="url(#paint18_linear_23_4661)" stroke-width="2"/>
<path d="M163.475 326.623C158.309 310.528 165.654 303.592 174.435 297.416C183.217 291.24 191.041 289.839 205.628 296.978C220.215 304.117 245.787 315.497 244.455 331.683C243.123 347.869 216.106 375.724 199.236 374.67" stroke="url(#paint19_linear_23_4661)" stroke-width="2"/>
<path d="M176.207 329.202C172.763 318.472 177.66 313.848 183.514 309.731C189.369 305.613 194.584 304.679 204.309 309.439C214.034 314.198 231.082 321.785 230.194 332.575C229.306 343.366 211.295 361.936 200.048 361.234" stroke="url(#paint20_linear_23_4661)" stroke-width="2"/>
<path d="M188.94 331.781C187.218 326.416 189.666 324.104 192.593 322.045C195.521 319.987 198.128 319.52 202.991 321.899C207.853 324.279 216.377 328.072 215.933 333.468C215.489 338.863 206.484 348.148 200.86 347.797" stroke="url(#paint21_linear_23_4661)" stroke-width="2"/>
<defs>
<linearGradient id="paint0_linear_23_4661" x1="-3377.74" y1="29383" x2="-64534.7" y2="21191.8" gradientUnits="userSpaceOnUse">
<stop offset="0.45" stop-color="#43AC20"/>
<stop offset="1" stop-color="#76DF53"/>
</linearGradient>
<linearGradient id="paint1_linear_23_4661" x1="-3215.04" y1="28062.6" x2="-61592.1" y2="20243.8" gradientUnits="userSpaceOnUse">
<stop offset="0.45" stop-color="#43AC20"/>
<stop offset="1" stop-color="#76DF53"/>
</linearGradient>
<linearGradient id="paint2_linear_23_4661" x1="-3052.34" y1="26742.2" x2="-58649.6" y2="19295.7" gradientUnits="userSpaceOnUse">
<stop offset="0.45" stop-color="#43AC20"/>
<stop offset="1" stop-color="#76DF53"/>
</linearGradient>
<linearGradient id="paint3_linear_23_4661" x1="-2889.64" y1="25421.8" x2="-55707" y2="18347.6" gradientUnits="userSpaceOnUse">
<stop offset="0.45" stop-color="#43AC20"/>
<stop offset="1" stop-color="#76DF53"/>
</linearGradient>
<linearGradient id="paint4_linear_23_4661" x1="-2726.94" y1="24101.4" x2="-52764.4" y2="17399.6" gradientUnits="userSpaceOnUse">
<stop offset="0.45" stop-color="#43AC20"/>
<stop offset="1" stop-color="#76DF53"/>
</linearGradient>
<linearGradient id="paint5_linear_23_4661" x1="-2564.24" y1="22781" x2="-49821.9" y2="16451.5" gradientUnits="userSpaceOnUse">
<stop offset="0.45" stop-color="#43AC20"/>
<stop offset="1" stop-color="#76DF53"/>
</linearGradient>
<linearGradient id="paint6_linear_23_4661" x1="-2401.54" y1="21460.6" x2="-46879.3" y2="15503.4" gradientUnits="userSpaceOnUse">
<stop offset="0.45" stop-color="#43AC20"/>
<stop offset="1" stop-color="#76DF53"/>
</linearGradient>
<linearGradient id="paint7_linear_23_4661" x1="-2238.84" y1="20140.3" x2="-43936.8" y2="14555.4" gradientUnits="userSpaceOnUse">
<stop offset="0.45" stop-color="#43AC20"/>
<stop offset="1" stop-color="#76DF53"/>
</linearGradient>
<linearGradient id="paint8_linear_23_4661" x1="-2076.14" y1="18819.9" x2="-40994.2" y2="13607.3" gradientUnits="userSpaceOnUse">
<stop offset="0.45" stop-color="#43AC20"/>
<stop offset="1" stop-color="#76DF53"/>
</linearGradient>
<linearGradient id="paint9_linear_23_4661" x1="-1913.44" y1="17499.5" x2="-38051.6" y2="12659.2" gradientUnits="userSpaceOnUse">
<stop offset="0.45" stop-color="#43AC20"/>
<stop offset="1" stop-color="#76DF53"/>
</linearGradient>
<linearGradient id="paint10_linear_23_4661" x1="-1750.74" y1="16179.1" x2="-35109.1" y2="11711.2" gradientUnits="userSpaceOnUse">
<stop offset="0.45" stop-color="#43AC20"/>
<stop offset="1" stop-color="#76DF53"/>
</linearGradient>
<linearGradient id="paint11_linear_23_4661" x1="-1588.04" y1="14858.7" x2="-32166.5" y2="10763.1" gradientUnits="userSpaceOnUse">
<stop offset="0.45" stop-color="#43AC20"/>
<stop offset="1" stop-color="#76DF53"/>
</linearGradient>
<linearGradient id="paint12_linear_23_4661" x1="-1425.34" y1="13538.3" x2="-29223.9" y2="9815.03" gradientUnits="userSpaceOnUse">
<stop offset="0.45" stop-color="#43AC20"/>
<stop offset="1" stop-color="#76DF53"/>
</linearGradient>
<linearGradient id="paint13_linear_23_4661" x1="-1262.63" y1="12217.9" x2="-26281.4" y2="8866.97" gradientUnits="userSpaceOnUse">
<stop offset="0.45" stop-color="#43AC20"/>
<stop offset="1" stop-color="#76DF53"/>
</linearGradient>
<linearGradient id="paint14_linear_23_4661" x1="-1099.93" y1="10897.5" x2="-23338.8" y2="7918.9" gradientUnits="userSpaceOnUse">
<stop offset="0.45" stop-color="#43AC20"/>
<stop offset="1" stop-color="#76DF53"/>
</linearGradient>
<linearGradient id="paint15_linear_23_4661" x1="-937.233" y1="9577.11" x2="-20396.3" y2="6970.83" gradientUnits="userSpaceOnUse">
<stop offset="0.45" stop-color="#43AC20"/>
<stop offset="1" stop-color="#76DF53"/>
</linearGradient>
<linearGradient id="paint16_linear_23_4661" x1="-774.532" y1="8256.72" x2="-17453.7" y2="6022.76" gradientUnits="userSpaceOnUse">
<stop offset="0.45" stop-color="#43AC20"/>
<stop offset="1" stop-color="#76DF53"/>
</linearGradient>
<linearGradient id="paint17_linear_23_4661" x1="-611.832" y1="6936.33" x2="-14511.1" y2="5074.7" gradientUnits="userSpaceOnUse">
<stop offset="0.45" stop-color="#43AC20"/>
<stop offset="1" stop-color="#76DF53"/>
</linearGradient>
<linearGradient id="paint18_linear_23_4661" x1="-449.131" y1="5615.93" x2="-11568.6" y2="4126.63" gradientUnits="userSpaceOnUse">
<stop offset="0.45" stop-color="#43AC20"/>
<stop offset="1" stop-color="#76DF53"/>
</linearGradient>
<linearGradient id="paint19_linear_23_4661" x1="-286.43" y1="4295.54" x2="-8626.01" y2="3178.56" gradientUnits="userSpaceOnUse">
<stop offset="0.45" stop-color="#43AC20"/>
<stop offset="1" stop-color="#76DF53"/>
</linearGradient>
<linearGradient id="paint20_linear_23_4661" x1="-123.729" y1="2975.15" x2="-5683.45" y2="2230.5" gradientUnits="userSpaceOnUse">
<stop offset="0.45" stop-color="#43AC20"/>
<stop offset="1" stop-color="#76DF53"/>
</linearGradient>
<linearGradient id="paint21_linear_23_4661" x1="38.9717" y1="1654.75" x2="-2740.89" y2="1282.43" gradientUnits="userSpaceOnUse">
<stop offset="0.45" stop-color="#43AC20"/>
<stop offset="1" stop-color="#76DF53"/>
</linearGradient>
</defs>
</svg>
