<svg width="218" height="185" viewBox="0 0 218 185" fill="none" xmlns="http://www.w3.org/2000/svg">
    <g filter="url(#filter0_dddd_23_4510)">
        <path d="M121.873 127.644H128.032L132.8 127.252L138.164 126.469L144.522 124.903L148.694 123.532L153.86 121.379L157.834 119.421L162.403 116.68L165.979 114.134L167.966 112.568L170.549 110.414L171.94 109.043L173.529 107.673L175.715 105.323L178.099 102.582L181.079 98.6664L183.463 94.9462L186.046 90.2472L188.033 85.9397L190.02 80.4574L191.41 75.1709L192.205 71.0592L192.801 65.9686L193 61.6611V59.3115L192.602 53.2419L191.808 48.1512L191.013 44.4311L189.424 39.1446L187.635 34.4455L184.854 28.7675L182.271 24.46L179.887 21.1315L177.9 18.5861L175.516 15.845L175.119 15.2576H174.721L174.324 14.4744L172.138 12.3207L169.953 10.5585L167.171 8.60056L164.191 6.83841L161.012 5.46784L157.436 4.29307L152.469 3.31409L150.085 3.1183H146.112L142.535 3.50989L137.966 4.48887L134.191 5.85944L131.012 7.4258L128.032 9.18795L125.25 11.3417L123.263 13.1039L121.873 14.4744L120.085 16.6282L118.098 19.3693L116.31 22.502L114.72 26.4179L113.528 30.3338L112.932 34.2497L112.733 36.9909V38.9488L113.131 43.2563L113.925 46.9764L115.316 51.0881L117.104 54.8082L119.29 58.1367L121.873 61.2695L124.257 63.619L126.442 66.3601L128.429 69.4929L130.018 72.6256L131.608 77.3247L132.204 80.0658L132.601 84.3733L132.403 88.8766L131.807 92.4009L130.615 96.3168L129.224 99.4495L127.634 102.386L126.244 104.344L124.654 106.302L122.866 108.26L121.277 109.631L118.694 111.589L116.111 113.155L112.932 114.722L108.76 116.288L106.972 117.854L106.177 119.616V122.162L106.773 123.532L107.766 124.903L109.356 125.882L114.323 126.861L119.091 127.448L121.873 127.644Z" fill="#B1E57B"/>
        <path d="M62.9695 7.00233L60.5959 6.78202L56.2069 6.76798L52.3742 7.19889L48.0899 8.17788L44.5782 9.42524L41.227 11.0808L38.4693 12.7915L36.3236 14.3623L34.1592 16.128L31.7226 18.6551L29.6815 21.219L27.5846 24.3676L25.8646 27.7478L24.5217 31.3598L23.5184 35.5932L22.9968 41.0513L23.3036 46.193L24.1179 50.2018L25.3463 54.0524L27.3288 58.3663L29.2438 61.2973L31.3753 64.0517L33.3276 66.5929L34.8656 69.2922L36.5269 72.7897L37.7368 76.8352L38.3905 80.4358L38.5927 84.5844L38.0897 89.8476L37.105 93.8861L35.527 97.8695L33.3555 101.798L31.2959 104.557L29.2921 106.731L26.8927 108.868L24.9448 110.457L22.187 112.168L19.0523 113.647L16.1527 114.754L11.8498 115.928L10.5884 116.598L9.23392 118.242L8.70791 119.57L8.55887 121.129L8.98462 122.939L10.3994 124.84L12.1051 125.785L15.7889 126.913L20.4803 127.939L23.2309 128.391L30.5496 129.07L35.1364 129.102L41.1636 128.679L46.0227 127.95L50.919 126.831L55.8526 125.322L59.995 123.74L63.5439 122.103L66.0666 120.764L69.0222 119.071L72.6457 116.654L75.4407 114.554L79.5529 111.199L81.538 109.22L84.1911 106.516L86.9001 103.228L88.9598 100.469L91.7619 96.2058L94.1684 91.9059L96.4516 86.808L98.0856 82.2398L99.6335 76.4836L100.42 72.4267L101.203 64.2395L101.15 58.5314L100.645 53.3714L99.8866 48.7778L98.8932 44.5557L97.2017 39.2855L95.096 34.1735L93.0763 30.2495L91.3591 27.3368L89.0857 23.9792L87.8687 22.0963L87.4731 22.0596L87.152 21.2432L84.1061 17.6172L80.9856 14.771L78.5632 12.9729L75.5473 11.1197L72.6921 9.67467L69.2247 8.36954L65.5224 7.43593L62.9695 7.00233Z" fill="#B1E57B"/>
    </g>
    <defs>
        <filter id="filter0_dddd_23_4510" x="0.558838" y="0.118408" width="217.441" height="183.984" filterUnits="userSpaceOnUse" color-interpolation-filters="sRGB">
            <feFlood flood-opacity="0" result="BackgroundImageFix"/>
            <feColorMatrix in="SourceAlpha" type="matrix" values="0 0 0 0 0 0 0 0 0 0 0 0 0 0 0 0 0 0 127 0" result="hardAlpha"/>
            <feOffset dx="1" dy="2"/>
            <feGaussianBlur stdDeviation="2.5"/>
            <feColorMatrix type="matrix" values="0 0 0 0 0 0 0 0 0 0 0 0 0 0 0 0 0 0 0.1 0"/>
            <feBlend mode="normal" in2="BackgroundImageFix" result="effect1_dropShadow_23_4510"/>
            <feColorMatrix in="SourceAlpha" type="matrix" values="0 0 0 0 0 0 0 0 0 0 0 0 0 0 0 0 0 0 127 0" result="hardAlpha"/>
            <feOffset dx="2" dy="10"/>
            <feGaussianBlur stdDeviation="5"/>
            <feColorMatrix type="matrix" values="0 0 0 0 0 0 0 0 0 0 0 0 0 0 0 0 0 0 0.09 0"/>
            <feBlend mode="normal" in2="effect1_dropShadow_23_4510" result="effect2_dropShadow_23_4510"/>
            <feColorMatrix in="SourceAlpha" type="matrix" values="0 0 0 0 0 0 0 0 0 0 0 0 0 0 0 0 0 0 127 0" result="hardAlpha"/>
            <feOffset dx="5" dy="22"/>
            <feGaussianBlur stdDeviation="6.5"/>
            <feColorMatrix type="matrix" values="0 0 0 0 0 0 0 0 0 0 0 0 0 0 0 0 0 0 0.05 0"/>
            <feBlend mode="normal" in2="effect2_dropShadow_23_4510" result="effect3_dropShadow_23_4510"/>
            <feColorMatrix in="SourceAlpha" type="matrix" values="0 0 0 0 0 0 0 0 0 0 0 0 0 0 0 0 0 0 127 0" result="hardAlpha"/>
            <feOffset dx="9" dy="39"/>
            <feGaussianBlur stdDeviation="8"/>
            <feColorMatrix type="matrix" values="0 0 0 0 0 0 0 0 0 0 0 0 0 0 0 0 0 0 0.01 0"/>
            <feBlend mode="normal" in2="effect3_dropShadow_23_4510" result="effect4_dropShadow_23_4510"/>
            <feBlend mode="normal" in="SourceGraphic" in2="effect4_dropShadow_23_4510" result="shape"/>
        </filter>
    </defs>
</svg>
