<svg width="40" height="40" viewBox="0 0 40 40" fill="none" xmlns="http://www.w3.org/2000/svg">
    <path fill-rule="evenodd" clip-rule="evenodd" d="M25 19.1667C25 19.6087 25.1756 20.0326 25.4881 20.3452C25.8007 20.6577 26.2246 20.8333 26.6666 20.8333C27.1087 20.8333 27.5326 20.6577 27.8451 20.3452C28.1577 20.0326 28.3333 19.6087 28.3333 19.1667V15H31.3216C33.5483 15 34.6633 12.3067 33.0883 10.7333L25.1 2.74C24.8678 2.50769 24.5921 2.32339 24.2887 2.19766C23.9853 2.07192 23.6601 2.0072 23.3316 2.0072C23.0032 2.0072 22.678 2.07192 22.3746 2.19766C22.0711 2.32339 21.7955 2.50769 21.5633 2.74L13.5783 10.7333C12 12.3067 13.1166 15 15.3433 15H18.3333V26.6667C18.3333 27.1087 18.5089 27.5326 18.8215 27.8452C19.134 28.1577 19.5579 28.3333 20 28.3333H22.645L16.6666 34.31L10.69 28.3333H13.3333C13.7753 28.3333 14.1992 28.1577 14.5118 27.8452C14.8244 27.5326 15 27.1087 15 26.6667V20.8333C15 20.3913 14.8244 19.9674 14.5118 19.6548C14.1992 19.3423 13.7753 19.1667 13.3333 19.1667C12.8913 19.1667 12.4673 19.3423 12.1548 19.6548C11.8422 19.9674 11.6666 20.3913 11.6666 20.8333V25H8.6783C6.45163 25 5.33496 27.6917 6.91163 29.2667L14.8983 37.2567C15.1305 37.489 15.4061 37.6733 15.7096 37.799C16.013 37.9247 16.3382 37.9895 16.6666 37.9895C16.9951 37.9895 17.3203 37.9247 17.6237 37.799C17.9271 37.6733 18.2028 37.489 18.435 37.2567L26.4233 29.2667C27.9983 27.6917 26.8816 25 24.655 25H21.6666V13.3333C21.6666 12.8913 21.491 12.4674 21.1785 12.1548C20.8659 11.8423 20.442 11.6667 20 11.6667H17.355L23.3333 5.68834L29.31 11.6667H26.6666C26.2246 11.6667 25.8007 11.8423 25.4881 12.1548C25.1756 12.4674 25 12.8913 25 13.3333V19.1667Z"/>
</svg>
