<svg width="40" height="40" viewBox="0 0 40 40" fill="none" xmlns="http://www.w3.org/2000/svg">
    <path d="M15.4167 21.6667C15.4167 23.5084 13.925 25 12.0833 25C10.2417 25 8.75 23.5084 8.75 21.6667C8.75 19.825 10.2417 18.3334 12.0833 18.3334C13.925 18.3334 15.4167 19.825 15.4167 21.6667Z"/>
    <path fill-rule="evenodd" clip-rule="evenodd" d="M12.0833 23.3334C12.5254 23.3334 12.9493 23.1578 13.2618 22.8452C13.5744 22.5327 13.75 22.1087 13.75 21.6667C13.75 21.2247 13.5744 20.8008 13.2618 20.4882C12.9493 20.1756 12.5254 20 12.0833 20C11.6413 20 11.2174 20.1756 10.9048 20.4882C10.5923 20.8008 10.4167 21.2247 10.4167 21.6667C10.4167 22.1087 10.5923 22.5327 10.9048 22.8452C11.2174 23.1578 11.6413 23.3334 12.0833 23.3334ZM12.0833 25C13.925 25 15.4167 23.5084 15.4167 21.6667C15.4167 19.825 13.925 18.3334 12.0833 18.3334C10.2417 18.3334 8.75 19.825 8.75 21.6667C8.75 23.5084 10.2417 25 12.0833 25Z"/>
    <path d="M5 30.455C5 27.935 9.71917 26.6666 12.0833 26.6666C14.4475 26.6666 19.1667 27.9358 19.1667 30.4541V35H5V30.455Z"/>
    <path fill-rule="evenodd" clip-rule="evenodd" d="M6.945 29.9858C6.68167 30.2458 6.66667 30.395 6.66667 30.455V33.3333H17.5V30.4541C17.5 30.3958 17.485 30.2458 17.2217 29.9858C16.9433 29.7116 16.4842 29.4175 15.855 29.1483C14.5883 28.6058 13.0417 28.3333 12.0833 28.3333C11.125 28.3333 9.5775 28.6058 8.31167 29.1483C7.6825 29.4175 7.22333 29.7116 6.945 29.9858ZM12.0833 26.6666C9.71917 26.6666 5 27.9358 5 30.4541V35H19.1667V30.4541C19.1667 27.9366 14.4475 26.6666 12.0833 26.6666Z"/>
    <path d="M31.2499 21.6667C31.2499 23.5084 29.7583 25 27.9166 25C26.0749 25 24.5833 23.5084 24.5833 21.6667C24.5833 19.825 26.0749 18.3334 27.9166 18.3334C29.7583 18.3334 31.2499 19.825 31.2499 21.6667Z"/>
    <path fill-rule="evenodd" clip-rule="evenodd" d="M27.9166 23.3334C28.3586 23.3334 28.7825 23.1578 29.0951 22.8452C29.4077 22.5327 29.5833 22.1087 29.5833 21.6667C29.5833 21.2247 29.4077 20.8008 29.0951 20.4882C28.7825 20.1756 28.3586 20 27.9166 20C27.4746 20 27.0506 20.1756 26.7381 20.4882C26.4255 20.8008 26.2499 21.2247 26.2499 21.6667C26.2499 22.1087 26.4255 22.5327 26.7381 22.8452C27.0506 23.1578 27.4746 23.3334 27.9166 23.3334ZM27.9166 25C29.7583 25 31.2499 23.5084 31.2499 21.6667C31.2499 19.825 29.7583 18.3334 27.9166 18.3334C26.0749 18.3334 24.5833 19.825 24.5833 21.6667C24.5833 23.5084 26.0749 25 27.9166 25Z"/>
    <path d="M23.3334 20C23.3334 21.8416 21.8417 23.3333 20.0001 23.3333C18.1584 23.3333 16.6667 21.8416 16.6667 20C16.6667 18.1583 18.1584 16.6666 20.0001 16.6666C21.8417 16.6666 23.3334 18.1583 23.3334 20Z"/>
    <path fill-rule="evenodd" clip-rule="evenodd" d="M20.0001 21.6666C20.4421 21.6666 20.866 21.491 21.1786 21.1785C21.4912 20.8659 21.6667 20.442 21.6667 20C21.6667 19.5579 21.4912 19.134 21.1786 18.8214C20.866 18.5089 20.4421 18.3333 20.0001 18.3333C19.5581 18.3333 19.1341 18.5089 18.8216 18.8214C18.509 19.134 18.3334 19.5579 18.3334 20C18.3334 20.442 18.509 20.8659 18.8216 21.1785C19.1341 21.491 19.5581 21.6666 20.0001 21.6666ZM20.0001 23.3333C21.8417 23.3333 23.3334 21.8416 23.3334 20C23.3334 18.1583 21.8417 16.6666 20.0001 16.6666C18.1584 16.6666 16.6667 18.1583 16.6667 20C16.6667 21.8416 18.1584 23.3333 20.0001 23.3333Z"/>
    <path d="M19.1667 10.6942C19.1667 9.62601 18.7424 8.6016 17.9871 7.84629C17.2318 7.09099 16.2074 6.66667 15.1392 6.66667H12.4984C11.4056 6.66491 10.356 7.09265 9.57574 7.85767C8.79549 8.62268 8.34713 9.66369 8.32734 10.7562C8.30756 11.8488 8.71792 12.9053 9.46996 13.6981C10.222 14.4909 11.2555 14.9564 12.3475 14.9942L12.5 15V16.6667C12.5 16.6667 19.1667 15.6942 19.1667 10.6942ZM21.6667 9.36333C21.6667 8.20611 22.1264 7.09627 22.9447 6.27799C23.763 5.45971 24.8728 5 26.03 5H30.8334C31.9384 5 32.9982 5.43899 33.7796 6.22039C34.561 7.00179 35 8.0616 35 9.16667C35 10.2717 34.561 11.3315 33.7796 12.1129C32.9982 12.8943 31.9384 13.3333 30.8334 13.3333H29.1667V15.8333C29.1667 15.8333 21.6667 14.78 21.6667 9.36333ZM20.8334 30.455C20.8334 27.935 25.5525 26.6667 27.9167 26.6667C30.2809 26.6667 35 27.9358 35 30.4542V35H20.8334V30.455Z"/>
    <path fill-rule="evenodd" clip-rule="evenodd" d="M22.7784 29.9858C22.5151 30.2458 22.5001 30.395 22.5001 30.455V33.3333H33.3334V30.4542C33.3334 30.3958 33.3184 30.2458 33.0551 29.9858C32.7768 29.7117 32.3176 29.4175 31.6884 29.1483C30.4218 28.6058 28.8751 28.3333 27.9168 28.3333C26.9584 28.3333 25.4109 28.6058 24.1451 29.1483C23.5159 29.4175 23.0568 29.7117 22.7784 29.9858ZM27.9168 26.6667C25.5526 26.6667 20.8334 27.9358 20.8334 30.4542V35H35.0001V30.4542C35.0001 27.9367 30.2809 26.6667 27.9168 26.6667ZM20.0001 28.7875C20.0001 27.39 18.4609 26.3767 16.6626 25.7517C17.7061 25.2583 18.8458 25.0016 20.0001 25C21.1544 25.0016 22.2941 25.2583 23.3376 25.7517C21.5393 26.3767 20.0001 27.39 20.0001 28.7875Z"/>
    <path fill-rule="evenodd" clip-rule="evenodd" d="M20.0001 28.7875C20.0001 28.0433 20.4368 27.4075 21.1168 26.8817L21.2343 26.7942C21.8151 26.3725 22.5509 26.025 23.3376 25.7525C22.557 25.3845 21.7216 25.1467 20.8643 25.0483C20.29 24.9839 19.7102 24.9839 19.1359 25.0483C18.2787 25.1464 17.4432 25.384 16.6626 25.7517C17.4484 26.025 18.1851 26.3725 18.7651 26.7933C18.8051 26.8222 18.8443 26.8517 18.8826 26.8817C19.5634 27.4067 20.0001 28.0433 20.0001 28.7875Z"/>
</svg>
