<svg width="40" height="40" viewBox="0 0 40 40" fill="none" xmlns="http://www.w3.org/2000/svg">
    <path d="M31.6666 5.00004L21.6666 15L24.9999 18.3334L36.6666 6.66671V5.00004M19.9999 20.8334C19.7789 20.8334 19.5669 20.7456 19.4107 20.5893C19.2544 20.433 19.1666 20.2211 19.1666 20C19.1666 19.779 19.2544 19.5671 19.4107 19.4108C19.5669 19.2545 19.7789 19.1667 19.9999 19.1667C20.2209 19.1667 20.4329 19.2545 20.5892 19.4108C20.7455 19.5671 20.8333 19.779 20.8333 20C20.8333 20.2211 20.7455 20.433 20.5892 20.5893C20.4329 20.7456 20.2209 20.8334 19.9999 20.8334ZM9.99992 33.3334C9.11586 33.3334 8.26802 32.9822 7.6429 32.3571C7.01777 31.7319 6.66659 30.8841 6.66659 30C6.66659 29.116 7.01777 28.2681 7.6429 27.643C8.26802 27.0179 9.11586 26.6667 9.99992 26.6667C10.884 26.6667 11.7318 27.0179 12.3569 27.643C12.9821 28.2681 13.3333 29.116 13.3333 30C13.3333 30.8841 12.9821 31.7319 12.3569 32.3571C11.7318 32.9822 10.884 33.3334 9.99992 33.3334ZM9.99992 13.3334C9.11586 13.3334 8.26802 12.9822 7.6429 12.3571C7.01777 11.7319 6.66659 10.8841 6.66659 10C6.66659 9.11599 7.01777 8.26814 7.6429 7.64302C8.26802 7.0179 9.11586 6.66671 9.99992 6.66671C10.884 6.66671 11.7318 7.0179 12.3569 7.64302C12.9821 8.26814 13.3333 9.11599 13.3333 10C13.3333 10.8841 12.9821 11.7319 12.3569 12.3571C11.7318 12.9822 10.884 13.3334 9.99992 13.3334ZM16.0666 12.7334C16.4499 11.9 16.6666 10.9834 16.6666 10C16.6666 8.23193 15.9642 6.53624 14.714 5.286C13.4637 4.03575 11.768 3.33337 9.99992 3.33337C8.23181 3.33337 6.53612 4.03575 5.28587 5.286C4.03563 6.53624 3.33325 8.23193 3.33325 10C3.33325 11.7682 4.03563 13.4638 5.28587 14.7141C6.53612 15.9643 8.23181 16.6667 9.99992 16.6667C10.9833 16.6667 11.8999 16.45 12.7333 16.0667L16.6666 20L12.7333 23.9334C11.8999 23.55 10.9833 23.3334 9.99992 23.3334C8.23181 23.3334 6.53612 24.0358 5.28587 25.286C4.03563 26.5362 3.33325 28.2319 3.33325 30C3.33325 31.7682 4.03563 33.4638 5.28587 34.7141C6.53612 35.9643 8.23181 36.6667 9.99992 36.6667C11.768 36.6667 13.4637 35.9643 14.714 34.7141C15.9642 33.4638 16.6666 31.7682 16.6666 30C16.6666 29.0167 16.4499 28.1 16.0666 27.2667L19.9999 23.3334L31.6666 35H36.6666V33.3334L16.0666 12.7334Z"/>
</svg>
